# xmcd CD database file
#
# Track frame offsets:
#	150
#	33095
#	55057
#	84110
#	105195
#	138390
#
# Disc length: 2146 seconds
#
# Revision: 0
# Processed by: cddbd v1.5.1PL0 Copyright (c) Steve Scherf et al.
# Submitted via: CDex 1.51
#
DISCID=37086006
DTITLE=Takehiro Honda and Sadao Watanabe Quartet - Minton Blues
DYEAR=1900
DGENRE=Jazz
TTITLE0=Minton Blues
TTITLE1=Hey Jude
TTITLE2=By the time I get Phoenix
TTITLE3=Ain't tell you a good way but
TTITLE4=Stella by starlight
TTITLE5=Quiet sea
EXTD=
EXTT0=
EXTT1=
EXTT2=
EXTT3=
EXTT4=
EXTT5=
PLAYORDER=
